<svg width="44" height="31" fill="none" xmlns="http://www.w3.org/2000/svg"><path fill-rule="evenodd" clip-rule="evenodd" d="M9.658 11.903c5.311 0 9.616 4.273 9.616 9.545 0 5.271-4.305 9.545-9.616 9.545-5.31 0-9.615-4.273-9.615-9.545L0 20.084C0 9.541 8.61.994 19.231.994v5.453a13.7 13.7 0 00-9.713 3.995c-.5.496-.955 1.024-1.366 1.58a9.844 9.844 0 011.506-.12zm24.726 0c5.31 0 9.616 4.273 9.616 9.545 0 5.271-4.305 9.545-9.616 9.545-5.31 0-9.615-4.273-9.615-9.545l-.043-1.364c0-10.543 8.61-19.09 19.231-19.09v5.453c-3.67 0-7.119 1.42-9.713 3.995-.5.496-.955 1.024-1.367 1.58a9.845 9.845 0 011.507-.12z" fill="#18CFAB"/></svg>