<svg width="12" height="11" fill="none" xmlns="http://www.w3.org/2000/svg"><path d="M.7 10a.3.3 0 00.3.3h2.7a.3.3 0 100-.6H1.3V7.3a.3.3 0 10-.6 0V10zm3.088-3.212l-3 3 .424.424 3-3-.424-.424zM1 .7a.3.3 0 00-.3.3l.001 2.7a.3.3 0 10.6 0V1.3h2.4A.3.3 0 103.7.7H1zm3.213 3.087L1.212.788l-.424.424 3.001 3 .424-.425zM11.3 1a.3.3 0 00-.3-.3H8.3a.3.3 0 000 .6h2.4v2.4a.3.3 0 10.6 0V1zM8.212 4.212l3-3-.424-.424-3 3 .424.424zm2.818 6.061a.3.3 0 00.297-.303l-.024-2.7a.3.3 0 10-.6.006l.021 2.4-2.4.021a.3.3 0 00.006.6l2.7-.024zM7.79 7.214l3.027 2.973.42-.428L8.21 6.786l-.42.428z" fill="#F8FCFE"/></svg>