<svg width="99" height="77" fill="none" xmlns="http://www.w3.org/2000/svg"><path fill-rule="evenodd" clip-rule="evenodd" d="M81.362 6.361H19.188v11.176H13.71V.997h73.131V31.08h-5.48V6.36zM38.797 76.996H0V19.974h38.797v57.022zm-20.449-4.693c0 1.007.836 1.835 1.869 1.835s1.873-.828 1.87-1.835c0-1.009-.837-1.83-1.87-1.83-1.033 0-1.869.821-1.869 1.83zm14.843-46.834H5.61v42.073h27.577l.002-42.073zm8.106 17.403h28.814v5.366H41.297v-5.366zm31.646 33.233V33.162H99v42.943H72.943zm14.236-40.548a.622.622 0 00-.629-.616.622.622 0 00-.63.616c0 .338.282.62.63.62a.626.626 0 00.629-.62zm3.119 1.444h-7.496v.589h7.496V37zM84.8 72.775c0 .813.676 1.475 1.504 1.475s1.504-.662 1.504-1.475c0-.814-.676-1.471-1.504-1.471-.832 0-1.504.662-1.504 1.471zm-7.676-3.547c3.355.027 10.928.003 17.695-.035V39.699l-17.695.004V69.23zM41.297 50.434H70.11v7.617H41.297v-2.94h19.314v-1.424H41.297v-3.253z" fill="#fff"/></svg>