<svg width="60" height="97" fill="none" xmlns="http://www.w3.org/2000/svg"><path fill-rule="evenodd" clip-rule="evenodd" d="M48 75.997a2.998 2.998 0 01-3 2.999H15c-1.658 0-3-1.342-3-2.999 0-1.659 1.342-3 3-3h30c1.658 0 3 1.341 3 3zm-3 6H15c-1.658 0-3 1.34-3 3a2.997 2.997 0 003 2.999h30c1.658 0 3-1.34 3-3 0-1.659-1.342-3-3-3zM24 96.996h12c3.316 0 6-2.683 6-6H18c0 3.317 2.684 6 6 6zm36-66c0 16.312-9.832 18.21-11.678 36 0 1.659-1.342 3-3 3H14.678c-1.659 0-3-1.341-3-3h-.006C9.832 49.206 0 47.308 0 30.996c0-16.57 13.43-30 30-30s30 13.43 30 30zm-17.854-9c-34.875 8.25-18 30-18 30 0-12 8.813-14.813 9-14.437-6.187 6-9 26.437-9 26.437h6v-12c17.063.938 12-27.938 12-30z" fill="#18CFAB"/></svg>