<svg width="58" height="98" fill="none" xmlns="http://www.w3.org/2000/svg"><path fill-rule="evenodd" clip-rule="evenodd" d="M15.7 35.976l.011-15.848c0-1.83.686-3.543 1.94-4.822 1.393-1.406 3.386-2.21 5.487-2.21 1.64 0 3.215.511 4.436 1.42 1.48 1.105 2.401 2.774 2.594 4.68 0 .043.847 8.309 1.607 15.707a18.247 18.247 0 008.917-15.707c0-10.053-8.06-18.2-18.004-18.2-9.945 0-18.005 8.147-18.005 18.2-.01 7.539 4.534 14.017 11.017 16.78zm.718 59.855c0 1.19.965 2.165 2.144 2.165H50.24c1.179 0 2.143-.976 2.143-2.165v-4.965H16.418v4.965zm38.249-43.81C56.66 52.668 58 54.542 58 56.655l-.022 17.269c0 2.568-.686 5.08-1.982 7.28l-3.633 6.208H16.397C6.387 77.163 1.307 66.234.536 61.543 0 58.325 2.218 56.17 4.683 56.17c1.404 0 2.894.692 4.008 2.306.354.521.74 1.084 1.169 1.7 3.166 4.636 6.415 4.733 7.898 4.778l.053.001h.032c.044 0 .097 0 .14-.012h.021c.515-.074.89-.509.89-1.029l.021-43.798c-.01-2.459 2.133-3.78 4.212-3.78 1.833 0 3.612 1.028 3.837 3.196 0 .044 2.765 27.072 2.775 27.157v.013h.011c.761-.684 2.025-1.083 3.472-1.083a8.99 8.99 0 011.661.16c1.833.37 13.836 4.28 19.784 6.241z" fill="#18CFAB"/></svg>