<svg width="88" height="43" fill="none" xmlns="http://www.w3.org/2000/svg"><rect x="1" y="2" width="41" height="40" rx="20" stroke="#18CFAB"/><path fill-rule="evenodd" clip-rule="evenodd" d="M26.913 17.728l-1.818-1.837a2.058 2.058 0 00-2.918-.008l-2.018 2.01a2.077 2.077 0 00-.008 2.928l1.152-1.132c-.116-.36.027-.774.313-1.06l1.284-1.277a1.028 1.028 0 011.46.002l1.091 1.104c.402.405.4 1.06-.004 1.465l-1.284 1.28c-.271.27-.717.419-1.063.323l-1.13 1.133c.805.813 2.11.816 2.919.01l2.015-2.01c.81-.806.813-2.12.01-2.93zm-7.387 7.364c.096.352-.057.808-.335 1.086l-1.199 1.197a1.048 1.048 0 01-1.485-.006l-1.114-1.122a1.06 1.06 0 01.005-1.492l1.2-1.197c.292-.292.712-.438 1.08-.314l1.155-1.172a2.098 2.098 0 00-2.972-.009l-1.946 1.941a2.117 2.117 0 00-.008 2.985l1.851 1.873a2.1 2.1 0 002.973.008l1.945-1.941a2.119 2.119 0 00.01-2.985l-1.16 1.148zm-.268-.529a.694.694 0 01-.996-.005.732.732 0 01.004-1.018l3.325-3.379a.694.694 0 01.994.003.73.73 0 01-.003 1.019l-3.324 3.38z" fill="#1FDAB5"/><path fill-rule="evenodd" clip-rule="evenodd" d="M66.597 1.998c11.268 0 20.403 8.954 20.403 20 0 11.045-9.135 20-20.403 20-11.268 0-20.402-8.955-20.402-20 0-11.046 9.134-20 20.402-20z" fill="#18CFAB"/><path fill="#fff" d="M60 17h12v11H60z"/></svg>